# xmcd
# Copyright (C) 1995-1998 Ti Kan
#
# Track frame offsets:
#       150
#       17325
#       37070
#       54109
#       73296
#       92934
#       114349
#       134600
#       155874
#       175668
#       194857
#
# Disc length: 2896 seconds
#
# Revision: 0
# Processed by: cddbd v1.4PL0 Copyright (c) Steve Scherf et al.
# Submitted via: CD-Transfer v1.0
#
DISCID=9e0b4e0b
DTITLE=Russo - Pace Amore Fantasie
DYEAR=2004
DGENRE=
TTITLE0=Fantasie
TTITLE1=Volare
TTITLE2=Dondolo
TTITLE3=Per Te
TTITLE4=Strade Deserte
TTITLE5=Mi Prendi ... Mi Lasci ...
TTITLE6=Notti Caraibiche
TTITLE7=Cosi Va Bene
TTITLE8=Babbo Natale
TTITLE9=Mare
TTITLE10=Piove
EXTD=
EXTT0=
EXTT1=
EXTT2=
EXTT3=
EXTT4=
EXTT5=
EXTT6=
EXTT7=
EXTT8=
EXTT9=
EXTT10=
PLAYORDER=
